<svg xmlns="http://www.w3.org/2000/svg" viewBox="0 0 100 235"><defs><style>.a{fill:#fff;}</style></defs><title>s_logo_2019</title><path class="a" d="M78.74,222.46q9.35-9.24,14.45-23.88a54.79,54.79,0,0,0,3.29-20.43,57.84,57.84,0,0,0-4.65-20,101.23,101.23,0,0,0-12.2-20.86,288.31,288.31,0,0,0-19.37-23.1Q49.36,102.39,42,93.62A83.25,83.25,0,0,1,31,77.26a37.89,37.89,0,0,1-4.09-14.79,42,42,0,0,1,2.67-15.93A34.8,34.8,0,0,1,39,31.75a36.26,36.26,0,0,1,14.48-8,51.69,51.69,0,0,1,17.9-1.7c.72.05,1.44.15,2.17.22C72.23,15.61,70.8,9,69.05,2.4A75.86,75.86,0,0,0,43.34,6a60,60,0,0,0-22,12.87A53.57,53.57,0,0,0,7.13,41.16,59.53,59.53,0,0,0,3.48,61.38a50.61,50.61,0,0,0,4,19,95,95,0,0,0,11.72,20q7.77,10.5,19.39,23.28,10.42,11.69,17.94,20.68a101.28,101.28,0,0,1,11.74,16.94,40.67,40.67,0,0,1,4.87,15.59,40.06,40.06,0,0,1-2.45,16.53q-6,17.2-20.44,23c5.28,4.78,9.77,10.45,14.14,16.22A53.67,53.67,0,0,0,78.74,222.46Z"/></svg>