<svg id="stryker_white" data-name="stryker white" xmlns="http://www.w3.org/2000/svg" viewBox="0 0 826 140"><defs><style>.cls-1{fill:#fff;}</style></defs><title>stryker_future_logo</title><path class="cls-1" d="M47.33,130.82a35.92,35.92,0,0,0,8.46-14,32,32,0,0,0,1.93-12A33.91,33.91,0,0,0,55,93.16a59.43,59.43,0,0,0-7.15-12.23A170.59,170.59,0,0,0,36.49,67.39q-6.37-6.93-10.68-12.07a48.72,48.72,0,0,1-6.49-9.59,22.39,22.39,0,0,1-2.4-8.67,24.75,24.75,0,0,1,1.57-9.33A20.48,20.48,0,0,1,24,19.06a21.27,21.27,0,0,1,8.49-4.66A30.07,30.07,0,0,1,43,13.4c.43,0,.85.09,1.27.13-.76-3.93-1.6-7.81-2.62-11.67A44.42,44.42,0,0,0,26.58,4a34.93,34.93,0,0,0-12.87,7.54A31.34,31.34,0,0,0,5.36,24.58,34.78,34.78,0,0,0,3.22,36.43,29.63,29.63,0,0,0,5.59,47.54a55.58,55.58,0,0,0,6.86,11.72Q17,65.41,23.82,72.9,29.93,79.76,34.33,85A59.13,59.13,0,0,1,41.21,95a23.64,23.64,0,0,1,2.85,9.14,23.26,23.26,0,0,1-1.43,9.68q-3.52,10.08-12,13.5a68.68,68.68,0,0,1,8.29,9.51A31.35,31.35,0,0,0,47.33,130.82Z"/><path class="cls-1" d="M121,.88c0,.12,0,11.79,0,11.79h11.42V139.52h12.85V12.67h40V.88S121,.76,121,.88Z"/><path class="cls-1" d="M399.74,87.6v51.92H386.88V87.89l-43.5-87H358l31.71,64.77c.39.78.9,1.94,1.55,3.48s1.41,3.52,2.32,5.9h.29A39.72,39.72,0,0,1,395.49,71q1.06-2.32,2.61-5.22L431.26.88H445Z"/><path class="cls-1" d="M512.55,67.78,572.68.88H556.35s-66,72.77-70.29,77.06v61.58h12.86V70.68s1.83,2.1,3.38,4l56.37,64.87h18Z"/><polygon class="cls-1" points="628.26 12.67 682.98 12.67 682.98 0.88 615.4 0.88 615.4 12.63 628.26 12.67"/><polygon class="cls-1" points="686.07 127.82 686.07 139.52 615.4 139.52 615.4 128 637 127.82 686.07 127.82"/><polygon class="cls-1" points="678.92 63.53 678.92 75.13 637 75.13 615.4 75 615.4 64 632 63.53 678.92 63.53"/><path class="cls-1" d="M802.07,96.59q-2.33-4.35-4.45-7.73a55.46,55.46,0,0,0-4.3-6,30.29,30.29,0,0,0-4.5-4.44,21.12,21.12,0,0,0-5.12-3V75a47,47,0,0,0,13.19-5,37.34,37.34,0,0,0,10-8.12,34.65,34.65,0,0,0,6.33-11,39.61,39.61,0,0,0,2.23-13.54,35.37,35.37,0,0,0-3.43-16,33.67,33.67,0,0,0-9.14-11.41,40.46,40.46,0,0,0-13-6.86A49.57,49.57,0,0,0,774.71.88H734.78V12.82l12.86-.15h24.07q14.7,0,22.48,6.92t7.78,19a30.3,30.3,0,0,1-2.27,12,26.05,26.05,0,0,1-6.38,9.09,28.33,28.33,0,0,1-9.91,5.8,37.71,37.71,0,0,1-11.41,2V80.62a20,20,0,0,1,5.41,3,31.11,31.11,0,0,1,6,6.33,79.06,79.06,0,0,1,6,9.86l20.88,39.74h15.09Z"/><path class="cls-1" d="M295.07,96.59q-2.32-4.35-4.45-7.73a55.46,55.46,0,0,0-4.3-6,30.29,30.29,0,0,0-4.5-4.44,21.12,21.12,0,0,0-5.12-3V75a47,47,0,0,0,13.19-5,37.34,37.34,0,0,0,10-8.12,34.65,34.65,0,0,0,6.33-11,39.61,39.61,0,0,0,2.23-13.54,35.37,35.37,0,0,0-3.43-16,33.67,33.67,0,0,0-9.14-11.41,40.46,40.46,0,0,0-13-6.86A49.57,49.57,0,0,0,267.71.88H227.78V12.82l12.86-.15h24.07q14.7,0,22.48,6.92t7.78,19a30.3,30.3,0,0,1-2.27,12,26.05,26.05,0,0,1-6.38,9.09,28.33,28.33,0,0,1-9.91,5.8,37.71,37.71,0,0,1-11.41,2V80.62a20,20,0,0,1,5.41,3,31.11,31.11,0,0,1,6,6.33,79.06,79.06,0,0,1,6,9.86l20.88,39.74h15.09Z"/></svg>