<svg width="200" height="34" xmlns="http://www.w3.org/2000/svg">
 <!-- Created with Method Draw - http://github.com/duopixel/Method-Draw/ -->
 <g>
  <title>background</title>
  <rect fill="none" id="canvas_background" height="36" width="202" y="-1" x="-1"/>
  <g display="none" overflow="visible" y="0" x="0" height="100%" width="100%" id="canvasGrid">
   <rect fill="url(#gridpattern)" stroke-width="0" y="0" x="0" height="100%" width="100%"/>
  </g>
 </g>
 <g>
  <title>Layer 1</title>
  <path d="m113.5,101.453125c-1,0 -0.382683,-1.076118 0,-2c1.08239,-2.613129 6.635048,-6.610695 13,-10c16.227509,-8.641075 25.815567,-9.992455 34,-11c10.917587,-1.344017 20,0 31,0c9,0 15.19577,1.648857 19,4c4.25325,2.628654 6,10 6,20c0,9 0.443726,23.769264 -7,36c-5.927689,9.739731 -18.535919,18.76651 -33,27c-9.716415,5.530945 -21.831863,12.449066 -32,16c-9.856552,3.442123 -15.21167,4.714127 -18,7c-1.093674,0.896591 2.063599,0.128723 8,1c10.329651,1.516068 29.002579,2.934891 55,4c23.002426,0.942398 42,1 62,1c7,0 9,0 9,0c1,1 1,1 1,1c0,0 1,-1 1,-1l0,0l0,-1" id="svg_1" stroke-width="1.5" stroke="#000" fill="none"/>
  <path d="m368.5,94.453125c0,-1 -0.306549,-1.458801 1,-2c7.391022,-3.06147 20.392181,-1.050758 35,5c8.263428,3.422821 13.458801,7.693436 14,9c1.913422,4.6194 0.564301,9.526222 -6,16c-5.560883,5.4842 -24.885345,10.997086 -38,12c-6.979614,0.533752 -13,-1 -13,0c0,1 4,0 6,0c9,0 19.761475,3.044418 25,8c3.632263,3.436081 4,7 4,10c0,2 -3.939117,6.26152 -12,8c-10.929047,2.357071 -24,3 -40,3c-9,0 -16,0 -17,0c0,0 0,-1 0,-1l0,0" id="svg_2" stroke-width="1.5" stroke="#000" fill="none"/>
  <text stroke="#000" transform="matrix(2.020393503491948,0,0,0.9984250240863162,-81.17276815891336,3.023018093179231) " xml:space="preserve" text-anchor="start" font-family="Helvetica, Arial, sans-serif" font-size="24" id="svg_4" y="22.453125" x="40.5" stroke-width="0" fill="#ffffff">WALTER</text>
 </g>
</svg>